# xmcd CD database file
#
# Track frame offsets:
#	150
#	24637
#	44504
#	74006
#	107743
#	145070
#	180877
#	244899
#	275096
#	295933
#
# Disc length: 4289 seconds
#
# Revision: 1
# Processed by: cddbd v1.5.2PL0 Copyright (c) Steve Scherf et al.
# Submitted via: CDex 1.51
#
DISCID=9910bf0a
DTITLE=Bud Shank - Bob Cooper - European Tour '57
DYEAR=1957
DGENRE=Jazz
TTITLE0=Vielaf
TTITLE1=For Bud
TTITLE2=Mademoiselle Butterfly
TTITLE3=A night in Tunisia
TTITLE4=Medley: Strairways to the stars, That's all, Lover man
TTITLE5=Boop-boop-be-doop
TTITLE6=I'll remember april
TTITLE7=Indian summer
TTITLE8=Polka dots and moonbeams
TTITLE9=Yardbird suite
EXTD=YEAR: 1957
EXTT0=
EXTT1=
EXTT2=
EXTT3=
EXTT4=
EXTT5=
EXTT6=
EXTT7=
EXTT8=
EXTT9=
PLAYORDER=
